<mxfile host="app.diagrams.net" modified="2021-04-12T08:19:16.368Z" agent="5.0 (Macintosh; Intel Mac OS X 10_15_7) AppleWebKit/537.36 (KHTML, like Gecko) Chrome/89.0.4389.114 Safari/537.36" etag="MX6VGw9PrvPSUJZCkJHZ" version="14.4.8" type="github">
  <diagram id="KARdZs-2pP0TwDJ2oasR" name="第 1 页">
    <mxGraphModel dx="1186" dy="293" grid="0" gridSize="10" guides="1" tooltips="1" connect="1" arrows="1" fold="1" page="0" pageScale="1" pageWidth="827" pageHeight="1169" math="0" shadow="0">
      <root>
        <mxCell id="0" />
        <mxCell id="1" parent="0" />
        <mxCell id="Crq5JKFlQotlshURcazU-4" value="" style="whiteSpace=wrap;html=1;shape=mxgraph.basic.isocube;isoAngle=15;rotation=0;" parent="1" vertex="1">
          <mxGeometry x="150" y="770" width="400" height="240" as="geometry" />
        </mxCell>
        <mxCell id="Crq5JKFlQotlshURcazU-5" value="" style="whiteSpace=wrap;html=1;shape=mxgraph.basic.isocube;isoAngle=15;" parent="1" vertex="1">
          <mxGeometry x="150" y="730" width="310" height="210" as="geometry" />
        </mxCell>
        <mxCell id="Crq5JKFlQotlshURcazU-6" value="kernel" style="text;html=1;strokeColor=none;fillColor=none;align=center;verticalAlign=middle;whiteSpace=wrap;rounded=0;rotation=333;fontSize=26;" parent="1" vertex="1">
          <mxGeometry x="430" y="920" width="70" height="20" as="geometry" />
        </mxCell>
        <mxCell id="Crq5JKFlQotlshURcazU-7" value="bootfs" style="text;html=1;strokeColor=none;fillColor=none;align=center;verticalAlign=middle;whiteSpace=wrap;rounded=0;rotation=333;fontSize=26;" parent="1" vertex="1">
          <mxGeometry x="410" y="890" width="70" height="20" as="geometry" />
        </mxCell>
        <mxCell id="Crq5JKFlQotlshURcazU-8" value="centos" style="text;html=1;strokeColor=none;fillColor=none;align=center;verticalAlign=middle;whiteSpace=wrap;rounded=0;fontSize=26;rotation=26;" parent="1" vertex="1">
          <mxGeometry x="170" y="860" width="80" height="20" as="geometry" />
        </mxCell>
        <mxCell id="Crq5JKFlQotlshURcazU-10" value="" style="whiteSpace=wrap;html=1;shape=mxgraph.basic.isocube;isoAngle=15;" parent="1" vertex="1">
          <mxGeometry x="150" y="667" width="310" height="212" as="geometry" />
        </mxCell>
        <mxCell id="Crq5JKFlQotlshURcazU-11" value="" style="whiteSpace=wrap;html=1;shape=mxgraph.basic.isocube;isoAngle=15;" parent="1" vertex="1">
          <mxGeometry x="150" y="600" width="310" height="216" as="geometry" />
        </mxCell>
        <mxCell id="Crq5JKFlQotlshURcazU-12" value="vim" style="text;html=1;strokeColor=none;fillColor=none;align=center;verticalAlign=middle;whiteSpace=wrap;rounded=0;fontSize=26;rotation=26;" parent="1" vertex="1">
          <mxGeometry x="180" y="800" width="80" height="20" as="geometry" />
        </mxCell>
        <mxCell id="Crq5JKFlQotlshURcazU-13" value="container" style="text;html=1;strokeColor=none;fillColor=none;align=center;verticalAlign=middle;whiteSpace=wrap;rounded=0;fontSize=26;rotation=26;" parent="1" vertex="1">
          <mxGeometry x="180" y="740" width="80" height="20" as="geometry" />
        </mxCell>
        <mxCell id="Crq5JKFlQotlshURcazU-14" value="rootfs" style="text;html=1;strokeColor=none;fillColor=none;align=center;verticalAlign=middle;whiteSpace=wrap;rounded=0;rotation=333;fontSize=26;" parent="1" vertex="1">
          <mxGeometry x="310" y="890" width="70" height="20" as="geometry" />
        </mxCell>
        <mxCell id="Crq5JKFlQotlshURcazU-15" value="image" style="text;html=1;strokeColor=none;fillColor=none;align=center;verticalAlign=middle;whiteSpace=wrap;rounded=0;rotation=333;fontSize=26;" parent="1" vertex="1">
          <mxGeometry x="350" y="800" width="70" height="20" as="geometry" />
        </mxCell>
        <mxCell id="Crq5JKFlQotlshURcazU-16" value="writable" style="text;html=1;strokeColor=none;fillColor=none;align=center;verticalAlign=middle;whiteSpace=wrap;rounded=0;rotation=333;fontSize=26;" parent="1" vertex="1">
          <mxGeometry x="344" y="740" width="70" height="20" as="geometry" />
        </mxCell>
        <mxCell id="Crq5JKFlQotlshURcazU-17" value="base image" style="text;html=1;strokeColor=none;fillColor=none;align=center;verticalAlign=middle;whiteSpace=wrap;rounded=0;rotation=333;fontSize=20;" parent="1" vertex="1">
          <mxGeometry x="380" y="850" width="70" height="20" as="geometry" />
        </mxCell>
        <mxCell id="Crq5JKFlQotlshURcazU-19" value="" style="endArrow=classic;html=1;fontSize=20;" parent="1" edge="1">
          <mxGeometry width="50" height="50" relative="1" as="geometry">
            <mxPoint x="260" y="657" as="sourcePoint" />
            <mxPoint x="104" y="570" as="targetPoint" />
            <Array as="points">
              <mxPoint x="104" y="657" />
            </Array>
          </mxGeometry>
        </mxCell>
        <mxCell id="Crq5JKFlQotlshURcazU-20" value="/var/lib/docker/containers/&amp;lt;id&amp;gt;/hosts&lt;br&gt;/var/lib/docker/containers/&amp;lt;id&amp;gt;/hostname&lt;br&gt;/var/lib/docker/containers/&amp;lt;id&amp;gt;/resolv.conf" style="text;html=1;strokeColor=none;fillColor=none;align=center;verticalAlign=middle;whiteSpace=wrap;rounded=0;fontSize=20;" parent="1" vertex="1">
          <mxGeometry x="60" y="490" width="450" height="80" as="geometry" />
        </mxCell>
      </root>
    </mxGraphModel>
  </diagram>
</mxfile>
